<mxfile host="Electron" modified="2024-11-08T21:52:45.631Z" agent="Mozilla/5.0 (X11; Linux x86_64) AppleWebKit/537.36 (KHTML, like Gecko) draw.io/24.4.0 Chrome/120.0.6099.109 Electron/28.1.0 Safari/537.36" etag="u9gRVuPRzDhlk5U4kdkQ" version="24.4.0" type="device">
  <diagram name="Page-1" id="0lK5whJEdncD6Zd8YYTB">
    <mxGraphModel dx="3183" dy="2934" grid="1" gridSize="10" guides="1" tooltips="1" connect="1" arrows="1" fold="1" page="1" pageScale="1" pageWidth="850" pageHeight="1100" math="0" shadow="0">
      <root>
        <mxCell id="0" />
        <mxCell id="1" parent="0" />
        <mxCell id="3tvuEIu1i6NoDWOXIwoT-1" value="Playstation 2 Mainboard" style="rounded=1;whiteSpace=wrap;html=1;fillColor=#e1d5e7;strokeColor=#9673a6;" vertex="1" parent="1">
          <mxGeometry x="530" y="370" width="280" height="340" as="geometry" />
        </mxCell>
        <mxCell id="3tvuEIu1i6NoDWOXIwoT-2" value="- Mount updside down (to reach controller port solder joints)&lt;div&gt;- Include CPU heatsink and fan&lt;/div&gt;&lt;div&gt;- Use PCB spacers&lt;/div&gt;&lt;div&gt;&lt;br&gt;&lt;/div&gt;&lt;div&gt;- Use cable ties and&amp;nbsp;&lt;span style=&quot;background-color: initial;&quot;&gt;&quot;Klebesockel f Kabelbinder&quot; to fix cables&lt;/span&gt;&lt;/div&gt;" style="text;html=1;align=left;verticalAlign=middle;whiteSpace=wrap;rounded=0;fillColor=#dae8fc;strokeColor=#6c8ebf;" vertex="1" parent="1">
          <mxGeometry x="810" y="410" width="200" height="280" as="geometry" />
        </mxCell>
        <mxCell id="3tvuEIu1i6NoDWOXIwoT-4" value="- Define spacer size and position&lt;div&gt;- Buy Box&lt;/div&gt;&lt;div&gt;&lt;br&gt;&lt;/div&gt;&lt;div&gt;- Solder wires to&lt;/div&gt;&lt;div&gt;&amp;nbsp; - Reset&lt;/div&gt;&lt;div&gt;&amp;nbsp; - +3.3V&lt;/div&gt;&lt;div&gt;&amp;nbsp; - PSU Main Supply&lt;/div&gt;&lt;div&gt;&amp;nbsp; - GND&lt;/div&gt;&lt;div&gt;&amp;nbsp; - +8V Controller supply&lt;/div&gt;&lt;div&gt;&amp;nbsp; - Controller port 1 Controller Supply&lt;/div&gt;&lt;div&gt;&amp;nbsp; -&amp;nbsp;&lt;span style=&quot;background-color: initial;&quot;&gt;Controller port 2 Controller Supply&lt;/span&gt;&lt;/div&gt;&lt;div&gt;&lt;span style=&quot;background-color: initial;&quot;&gt;&amp;nbsp; - All other controller pads&lt;/span&gt;&lt;/div&gt;&lt;div&gt;&lt;span style=&quot;background-color: initial;&quot;&gt;- 2.5mm Header for all pins (taped)&lt;/span&gt;&lt;/div&gt;" style="text;html=1;align=left;verticalAlign=middle;whiteSpace=wrap;rounded=0;fillColor=#fff2cc;strokeColor=#d6b656;" vertex="1" parent="1">
          <mxGeometry x="1010" y="410" width="200" height="280" as="geometry" />
        </mxCell>
        <mxCell id="3tvuEIu1i6NoDWOXIwoT-6" style="edgeStyle=orthogonalEdgeStyle;rounded=0;orthogonalLoop=1;jettySize=auto;html=1;entryX=0.25;entryY=0;entryDx=0;entryDy=0;" edge="1" parent="1" source="3tvuEIu1i6NoDWOXIwoT-5" target="3tvuEIu1i6NoDWOXIwoT-1">
          <mxGeometry relative="1" as="geometry" />
        </mxCell>
        <mxCell id="3tvuEIu1i6NoDWOXIwoT-5" value="PSU&lt;div&gt;8.5V 5.5A&lt;/div&gt;" style="rounded=1;whiteSpace=wrap;html=1;fillColor=#e1d5e7;strokeColor=#9673a6;" vertex="1" parent="1">
          <mxGeometry x="540" y="250" width="120" height="60" as="geometry" />
        </mxCell>
        <mxCell id="3tvuEIu1i6NoDWOXIwoT-7" value="- Tape PSU to board" style="text;html=1;align=left;verticalAlign=middle;whiteSpace=wrap;rounded=0;fillColor=#dae8fc;strokeColor=#6c8ebf;" vertex="1" parent="1">
          <mxGeometry x="410" y="250" width="130" height="60" as="geometry" />
        </mxCell>
        <mxCell id="3tvuEIu1i6NoDWOXIwoT-9" value="&lt;div&gt;Power Strip&lt;/div&gt;&lt;div&gt;&lt;br&gt;&lt;/div&gt;1 - PSU&lt;div&gt;2- USB PSU Screen&lt;/div&gt;&lt;div&gt;3 - USB PSU HDMI Adapter&lt;/div&gt;&lt;div&gt;4 - USB PSU BlueRetro&lt;/div&gt;" style="rounded=1;whiteSpace=wrap;html=1;align=left;fillColor=#e1d5e7;strokeColor=#9673a6;" vertex="1" parent="1">
          <mxGeometry x="330" y="410" width="170" height="250" as="geometry" />
        </mxCell>
        <mxCell id="3tvuEIu1i6NoDWOXIwoT-11" style="edgeStyle=orthogonalEdgeStyle;rounded=0;orthogonalLoop=1;jettySize=auto;html=1;entryX=0.25;entryY=1;entryDx=0;entryDy=0;" edge="1" parent="1" source="3tvuEIu1i6NoDWOXIwoT-10" target="3tvuEIu1i6NoDWOXIwoT-1">
          <mxGeometry relative="1" as="geometry" />
        </mxCell>
        <mxCell id="3tvuEIu1i6NoDWOXIwoT-10" value="Controller" style="rounded=1;whiteSpace=wrap;html=1;fillColor=#e1d5e7;strokeColor=#9673a6;" vertex="1" parent="1">
          <mxGeometry x="540" y="770" width="120" height="60" as="geometry" />
        </mxCell>
        <mxCell id="3tvuEIu1i6NoDWOXIwoT-12" value="- Mount using cable tie&lt;div&gt;- Connect normally&lt;/div&gt;" style="text;html=1;align=left;verticalAlign=middle;whiteSpace=wrap;rounded=0;fillColor=#dae8fc;strokeColor=#6c8ebf;" vertex="1" parent="1">
          <mxGeometry x="410" y="770" width="130" height="60" as="geometry" />
        </mxCell>
        <mxCell id="3tvuEIu1i6NoDWOXIwoT-21" style="edgeStyle=orthogonalEdgeStyle;rounded=0;orthogonalLoop=1;jettySize=auto;html=1;entryX=0.5;entryY=0;entryDx=0;entryDy=0;" edge="1" parent="1" source="3tvuEIu1i6NoDWOXIwoT-15" target="3tvuEIu1i6NoDWOXIwoT-17">
          <mxGeometry relative="1" as="geometry" />
        </mxCell>
        <mxCell id="3tvuEIu1i6NoDWOXIwoT-15" value="Screen" style="shape=process;whiteSpace=wrap;html=1;backgroundOutline=1;fillColor=#e1d5e7;strokeColor=#9673a6;" vertex="1" parent="1">
          <mxGeometry x="680" y="130" width="120" height="60" as="geometry" />
        </mxCell>
        <mxCell id="3tvuEIu1i6NoDWOXIwoT-18" style="edgeStyle=orthogonalEdgeStyle;rounded=0;orthogonalLoop=1;jettySize=auto;html=1;entryX=0.75;entryY=0;entryDx=0;entryDy=0;" edge="1" parent="1" source="3tvuEIu1i6NoDWOXIwoT-17" target="3tvuEIu1i6NoDWOXIwoT-1">
          <mxGeometry relative="1" as="geometry" />
        </mxCell>
        <mxCell id="3tvuEIu1i6NoDWOXIwoT-17" value="HDMI Adapter" style="rounded=1;whiteSpace=wrap;html=1;fillColor=#e1d5e7;strokeColor=#9673a6;" vertex="1" parent="1">
          <mxGeometry x="680" y="250" width="120" height="60" as="geometry" />
        </mxCell>
        <mxCell id="3tvuEIu1i6NoDWOXIwoT-19" value="USB&lt;div&gt;Power&lt;/div&gt;" style="shape=parallelogram;perimeter=parallelogramPerimeter;whiteSpace=wrap;html=1;fixedSize=1;fillColor=#f8cecc;strokeColor=#b85450;" vertex="1" parent="1">
          <mxGeometry x="680" y="220" width="70" height="40" as="geometry" />
        </mxCell>
        <mxCell id="3tvuEIu1i6NoDWOXIwoT-20" value="USB&lt;div&gt;Power&lt;/div&gt;" style="shape=parallelogram;perimeter=parallelogramPerimeter;whiteSpace=wrap;html=1;fixedSize=1;fillColor=#f8cecc;strokeColor=#b85450;" vertex="1" parent="1">
          <mxGeometry x="680" y="100" width="70" height="40" as="geometry" />
        </mxCell>
        <mxCell id="3tvuEIu1i6NoDWOXIwoT-22" value="&lt;div&gt;- Tape to board&lt;/div&gt;- Power over USB&lt;div&gt;- Solder cinch directly to board&lt;/div&gt;" style="text;html=1;align=left;verticalAlign=middle;whiteSpace=wrap;rounded=0;fillColor=#dae8fc;strokeColor=#6c8ebf;" vertex="1" parent="1">
          <mxGeometry x="800" y="250" width="130" height="60" as="geometry" />
        </mxCell>
        <mxCell id="3tvuEIu1i6NoDWOXIwoT-23" value="&lt;div&gt;- &quot;Klebesockel f Kabelbinder&quot;&lt;/div&gt;&lt;div&gt;- Cable tie to board&lt;/div&gt;- Power over USB&lt;div&gt;- HDMI cable&lt;/div&gt;" style="text;html=1;align=left;verticalAlign=middle;whiteSpace=wrap;rounded=0;fillColor=#dae8fc;strokeColor=#6c8ebf;" vertex="1" parent="1">
          <mxGeometry x="800" y="130" width="170" height="60" as="geometry" />
        </mxCell>
        <mxCell id="3tvuEIu1i6NoDWOXIwoT-24" value="&lt;div&gt;- Tape to board&lt;/div&gt;" style="text;html=1;align=left;verticalAlign=middle;whiteSpace=wrap;rounded=0;fillColor=#dae8fc;strokeColor=#6c8ebf;" vertex="1" parent="1">
          <mxGeometry x="200" y="410" width="130" height="60" as="geometry" />
        </mxCell>
        <mxCell id="3tvuEIu1i6NoDWOXIwoT-25" value="- Buy double sided tape" style="text;html=1;align=left;verticalAlign=middle;whiteSpace=wrap;rounded=0;fillColor=#fff2cc;strokeColor=#d6b656;" vertex="1" parent="1">
          <mxGeometry x="930" y="250" width="140" height="60" as="geometry" />
        </mxCell>
        <mxCell id="3tvuEIu1i6NoDWOXIwoT-26" value="- Buy &quot;Klebesockel f Kabelbinder&quot;&lt;div&gt;- Buy Kabelbinder&lt;/div&gt;" style="text;html=1;align=left;verticalAlign=middle;whiteSpace=wrap;rounded=0;fillColor=#fff2cc;strokeColor=#d6b656;" vertex="1" parent="1">
          <mxGeometry x="970" y="130" width="140" height="60" as="geometry" />
        </mxCell>
        <mxCell id="3tvuEIu1i6NoDWOXIwoT-27" value="- Buy power power strip" style="text;html=1;align=left;verticalAlign=middle;whiteSpace=wrap;rounded=0;fillColor=#fff2cc;strokeColor=#d6b656;" vertex="1" parent="1">
          <mxGeometry x="200" y="470" width="130" height="60" as="geometry" />
        </mxCell>
        <mxCell id="3tvuEIu1i6NoDWOXIwoT-29" style="edgeStyle=orthogonalEdgeStyle;rounded=0;orthogonalLoop=1;jettySize=auto;html=1;entryX=0.75;entryY=1;entryDx=0;entryDy=0;" edge="1" parent="1" source="3tvuEIu1i6NoDWOXIwoT-28" target="3tvuEIu1i6NoDWOXIwoT-1">
          <mxGeometry relative="1" as="geometry" />
        </mxCell>
        <mxCell id="3tvuEIu1i6NoDWOXIwoT-28" value="2.5mm header" style="rounded=1;whiteSpace=wrap;html=1;fillColor=#e1d5e7;strokeColor=#9673a6;" vertex="1" parent="1">
          <mxGeometry x="680" y="770" width="120" height="60" as="geometry" />
        </mxCell>
        <mxCell id="3tvuEIu1i6NoDWOXIwoT-31" value="&lt;div&gt;- Tape to board&lt;/div&gt;" style="text;html=1;align=left;verticalAlign=middle;whiteSpace=wrap;rounded=0;fillColor=#dae8fc;strokeColor=#6c8ebf;" vertex="1" parent="1">
          <mxGeometry x="800" y="770" width="130" height="60" as="geometry" />
        </mxCell>
        <mxCell id="3tvuEIu1i6NoDWOXIwoT-33" style="edgeStyle=orthogonalEdgeStyle;rounded=0;orthogonalLoop=1;jettySize=auto;html=1;entryX=0.5;entryY=1;entryDx=0;entryDy=0;" edge="1" parent="1" source="3tvuEIu1i6NoDWOXIwoT-32" target="3tvuEIu1i6NoDWOXIwoT-28">
          <mxGeometry relative="1" as="geometry" />
        </mxCell>
        <mxCell id="3tvuEIu1i6NoDWOXIwoT-32" value="PS2 BlueRetro" style="rounded=1;whiteSpace=wrap;html=1;fillColor=#e1d5e7;strokeColor=#9673a6;" vertex="1" parent="1">
          <mxGeometry x="680" y="870" width="120" height="60" as="geometry" />
        </mxCell>
        <mxCell id="3tvuEIu1i6NoDWOXIwoT-34" value="&lt;div&gt;- Adhesive PCB spacers&lt;/div&gt;&lt;div&gt;- Use same holes on all board iterations&lt;/div&gt;" style="text;html=1;align=left;verticalAlign=middle;whiteSpace=wrap;rounded=0;fillColor=#dae8fc;strokeColor=#6c8ebf;" vertex="1" parent="1">
          <mxGeometry x="800" y="870" width="130" height="60" as="geometry" />
        </mxCell>
        <mxCell id="3tvuEIu1i6NoDWOXIwoT-35" value="USB&lt;div&gt;Power&lt;/div&gt;" style="shape=parallelogram;perimeter=parallelogramPerimeter;whiteSpace=wrap;html=1;fixedSize=1;fillColor=#f8cecc;strokeColor=#b85450;" vertex="1" parent="1">
          <mxGeometry x="670" y="840" width="70" height="40" as="geometry" />
        </mxCell>
      </root>
    </mxGraphModel>
  </diagram>
</mxfile>
